#!OML:ASF H:\Terrain\Patient Classification 1\Walking\steve\steve.ASF
:FULLY-SPECIFIED
:DEGREES
303
root 7.29162 16.25 2.26293 6.24808 -1.83159 1.18581
lowerback 0.287407 0.61096 1.83225
upperback -1.70595 0.868133 1.77076
thorax -1.91011 0.419976 0.77172
lowerneck -10.9304 0.119406 -1.25802
upperneck 18.6278 0.752761 -1.75511
head 7.53408 0.109701 -0.292014
rclavicle 5.46658e-016 -1.43125e-014
rhumerus -48.1695 -30.7873 -61.3404
rradius 18.9424
rwrist 20.0168
rhand -21.0161 -34.3978
rfingers 7.12502
rthumb 5.35877 -64.31
lclavicle 5.46658e-016 -1.43125e-014
lhumerus -21.4313 3.0453 88.2501
lradius 31.5266
lwrist 16.6305
lhand -24.3866 -16.9107
lfingers 7.12502
lthumb 2.10403 13.0587
rfemur -33.3467 3.25107 23.4173
rtibia 40.4324
rfoot -11.3879 7.43877
rtoes 10.9254
lfemur -6.59854 5.79922 -23.3131
ltibia 57.9863
lfoot 4.89228 5.41733
ltoes -8.13816
304
root 7.29199 16.2681 2.40903 6.05062 -1.67613 1.35473
lowerback 0.453833 0.636726 1.71869
upperback -1.5874 0.901805 1.69294
thorax -1.88218 0.438326 0.753466
lowerneck -10.9276 0.0942007 -1.34217
upperneck 18.6776 0.695164 -1.55231
head 7.54856 0.0948393 -0.217251
rclavicle -2.28602e-015 -3.97569e-015
rhumerus -46.4565 -29.9707 -63.228
rradius 19.363
rwrist 18.3656
rhand -21.1775 -35.6793
rfingers 7.12502
rthumb 5.20292 -65.5954
lclavicle -2.28602e-015 -3.97569e-015
lhumerus -21.8848 3.88748 88.2409
lradius 30.4216
lwrist 15.0655
lhand -24.241 -16.6022
lfingers 7.12502
lthumb 2.24458 13.3658
rfemur -32.3218 2.88885 23.3008
rtibia 40.119
rfoot -11.5767 7.84447
rtoes 11.288
lfemur -7.98891 6.00866 -23.4015
ltibia 59.9343
lfoot 3.5412 5.7833
ltoes -10.388
305
root 7.29216 16.2885 2.55216 5.99616 -1.66855 1.01484
lowerback 0.576334 0.737156 2.11818
upperback -1.55826 1.04549 1.73059
thorax -1.91522 0.504169 0.564148
lowerneck -10.9353 0.0672547 -1.43096
upperneck 18.8328 0.651453 -1.41586
head 7.60009 0.0790058 -0.162171
rclavicle 1.29707e-014 1.27222e-014
rhumerus -45.142 -30.3116 -64.1181
rradius 19.4523
rwrist 18.0453
rhand -20.2616 -36.9081
rfingers 7.12502
rthumb 6.0873 -66.8006
lclavicle 1.29707e-014 1.27222e-014
lhumerus -22.5437 4.80843 88.1303
lradius 29.4545
lwrist 13.2539
lhand -23.86 -16.2441
lfingers 7.12502
lthumb 2.61253 13.7197
rfemur -31.5382 2.86034 23.6864
rtibia 39.8127
rfoot -11.9987 8.00864
rtoes 8.40339
lfemur -9.53839 6.41478 -22.9434
ltibia 61.7437
lfoot 2.91646 6.11372
ltoes -10.1716
306
root 7.2811 16.3037 2.69809 6.15509 -1.61439 0.623199
lowerback 0.45891 0.849489 2.39589
upperback -1.65518 1.19879 1.77534
thorax -1.94369 0.576211 0.452621
lowerneck -10.8309 -0.0255438 -1.35329
upperneck 19.0684 0.518057 -1.4492
head 7.65897 0.0160949 -0.199294
rclavicle -8.44835e-016 -2.78299e-014
rhumerus -43.9348 -30.2095 -65.2891
rradius 19.6082
rwrist 17.1051
rhand -20.2776 -36.6891
rfingers 7.12502
rthumb 6.0718 -66.582
lclavicle -8.44835e-016 -2.78299e-014
lhumerus -23.2446 5.35994 87.9373
lradius 28.4237
lwrist 11.9984
lhand -23.4534 -16.2555
lfingers 7.12502
lthumb 3.00527 13.7031
rfemur -31.0075 2.91339 24.1277
rtibia 39.5764
rfoot -12.3897 8.17703
rtoes 7.62395
lfemur -11.2895 6.87904 -22.3418
ltibia 63.36
lfoot 2.96023 6.04032
ltoes -5.8027
307
root 7.27131 16.3138 2.844 6.14924 -1.60591 0.452607
lowerback 0.426012 0.961956 2.44466
upperback -1.65234 1.34802 1.76588
thorax -1.91962 0.65013 0.413239
lowerneck -10.8661 -0.0862225 -1.17449
upperneck 19.2633 0.412978 -1.48897
head 7.72949 -0.0266865 -0.252784
rclavicle 6.55989e-015 -1.19271e-014
rhumerus -42.2741 -29.0146 -67.2784
rradius 19.9242
rwrist 15.0715
rhand -20.5518 -36.3123
rfingers 7.12502
rthumb 5.80713 -66.2127
lclavicle 6.55989e-015 -1.19271e-014
lhumerus -23.8954 5.59569 87.8294
lradius 27.487
lwrist 11.3727
lhand -23.5197 -15.9996
lfingers 7.12502
lthumb 2.94125 13.9599
rfemur -30.2543 3.00012 24.3652
rtibia 39.312
rfoot -13.0007 8.21021
rtoes 6.10828
lfemur -12.7988 7.23819 -22.0032
ltibia 64.7507
lfoot 0.499019 5.91075
ltoes -9.90968
308
root 7.26605 16.3216 2.98738 6.0106 -1.63808 0.225388
lowerback 0.396101 1.06817 2.58349
upperback -1.51738 1.48717 1.82733
thorax -1.76104 0.720074 0.39794
lowerneck -10.9341 -0.1479 -1.21522
upperneck 19.3796 0.329328 -1.43888
head 7.77985 -0.0658572 -0.238022
rclavicle 1.24737e-014 -1.35174e-014
rhumerus -40.3773 -27.4894 -69.2487
rradius 20.2715
rwrist 13.4516
rhand -20.4749 -36.4635
rfingers 7.12502
rthumb 5.88136 -66.3619
lclavicle 1.24737e-014 -1.35174e-014
lhumerus -24.5155 6.11622 87.8167
lradius 26.5474
lwrist 10.5888
lhand -23.9583 -15.8443
lfingers 7.12502
lthumb 2.5176 14.1206
rfemur -29.3572 3.22141 24.6629
rtibia 39.0794
rfoot -13.6531 8.05912
rtoes 3.66794
lfemur -14.1447 7.47963 -21.6511
ltibia 65.8837
lfoot -0.590534 5.75641
ltoes -10.5054
309
root 7.25953 16.3327 3.12883 6.01509 -1.58623 -0.143027
lowerback 0.256389 1.11667 2.81357
upperback -1.46388 1.54895 1.96607
thorax -1.62508 0.750333 0.414174
lowerneck -11.0399 -0.216367 -1.3545
upperneck 19.6546 0.271422 -1.4495
head 7.89028 -0.10748 -0.224793
rclavicle -7.65321e-015 -1.19271e-014
rhumerus -38.8278 -27.0442 -70.3634
rradius 20.4501
rwrist 13.6735
rhand -20.7029 -35.9985
rfingers 7.12502
rthumb 5.66117 -65.9029
lclavicle -7.65321e-015 -1.19271e-014
lhumerus -25.3172 6.84167 87.752
lradius 25.7185
lwrist 9.77181
lhand -24.2993 -15.9681
lfingers 7.12502
lthumb 2.18832 14.0004
rfemur -28.5816 3.36533 25.1018
rtibia 38.8527
rfoot -14.0728 7.80542
rtoes 2.44369
lfemur -15.6477 7.67966 -21.1662
ltibia 66.7451
lfoot -1.05275 5.51872
ltoes -12.165
310
root 7.25067 16.3494 3.26928 6.06539 -1.56343 -0.0926787
lowerback 0.253877 1.15111 2.58545
upperback -1.5532 1.59529 1.96551
thorax -1.72073 0.775388 0.539275
lowerneck -10.8518 -0.229992 -1.50521
upperneck 19.7012 0.244841 -1.28536
head 7.87145 -0.114967 -0.147918
rclavicle 2.98177e-016 2.54444e-014
rhumerus -37.6137 -27.3704 -70.9911
rradius 20.4834
rwrist 14.3388
rhand -20.9714 -39.3452
rfingers 7.12502
rthumb 5.40194 -69.2563
lclavicle 2.98177e-016 2.54444e-014
lhumerus -26.282 7.44931 87.5659
lradius 24.9776
lwrist 9.28373
lhand -24.1534 -15.8631
lfingers 7.12502
lthumb 2.32916 14.104
rfemur -27.9123 3.42725 25.0667
rtibia 38.6033
rfoot -14.4007 7.77014
rtoes 2.98449
lfemur -17.0985 7.81323 -21.1925
ltibia 67.2926
lfoot -1.90018 5.2631
ltoes -13.2165
311
root 7.24667 16.3693 3.41159 6.03567 -1.52972 0.0332606
lowerback 0.312535 1.23687 2.39022
upperback -1.63124 1.71095 1.88102
thorax -1.83563 0.834111 0.557439
lowerneck -10.4148 -0.245199 -1.59551
upperneck 19.5505 0.172263 -1.00812
head 7.74201 -0.126458 -0.0478022
rclavicle 1.05356e-014 -5.56597e-015
rhumerus -36.464 -27.2977 -71.6525
rradius 20.7921
rwrist 15.0373
rhand -19.9827 -36.5715
rfingers 7.12502
rthumb 6.35656 -66.4561
lclavicle 1.05356e-014 -5.56597e-015
lhumerus -27.2137 8.1947 87.2063
lradius 24.2181
lwrist 8.36071
lhand -23.9059 -15.5824
lfingers 7.12502
lthumb 2.56822 14.3819
rfemur -27.1851 3.35571 24.9496
rtibia 38.3004
rfoot -14.8475 8.26368
rtoes 4.40721
lfemur -18.3199 7.85735 -21.37
ltibia 67.6879
lfoot -2.65867 4.69366
ltoes -12.1886
312
root 7.24656 16.3898 3.54794 6.03886 -1.40212 -0.144671
lowerback 0.358106 1.29377 2.57026
upperback -1.65753 1.79213 1.89665
thorax -1.88295 0.871485 0.470057
lowerneck -10.5877 -0.267468 -1.66337
upperneck 19.9331 0.150732 -0.941171
head 7.90003 -0.138965 -0.0171363
rclavicle 1.87355e-014 1.35174e-014
rhumerus -35.2918 -27.2368 -71.9969
rradius 21.4099
rwrist 17.8972
rhand -14.9409 -34.8591
rfingers 7.12502
rthumb 11.2218 -64.5389
lclavicle 1.87355e-014 1.35174e-014
lhumerus -28.0479 8.86479 86.8781
lradius 23.4419
lwrist 7.18664
lhand -24.2933 -15.437
lfingers 7.12502
lthumb 2.19409 14.5315
rfemur -26.5108 3.23133 25.1654
rtibia 38.0638
rfoot -15.3385 8.72427
rtoes 5.13152
lfemur -19.6305 7.77572 -21.2112
ltibia 67.928
lfoot -3.10283 4.04295
ltoes -11.9396
313
root 7.23396 16.3874 3.66895 6.14304 -1.47249 -1.02307
lowerback 0.542856 1.42152 3.21008
upperback -1.75157 1.9883 2.16454
thorax -2.07082 0.95885 0.378069
lowerneck -10.8041 -0.321908 -1.74085
upperneck 20.3011 0.115201 -1.00559
head 8.0624 -0.171658 -0.0297826
rclavicle -7.95139e-016 1.35174e-014
rhumerus -33.5638 -24.0513 -74.4615
rradius 21.8287
rwrist 12.4442
rhand -18.7995 -35.4914
rfingers 7.12502
rthumb 7.4987 -65.3384
lclavicle -7.95139e-016 1.35174e-014
lhumerus -28.8359 9.2934 86.6369
lradius 22.6415
lwrist 6.28146
lhand -24.4701 -15.5379
lfingers 7.12502
lthumb 2.02336 14.4322
rfemur -25.9827 3.84201 26.1693
rtibia 37.8154
rfoot -15.6313 8.45707
rtoes 5.71713
lfemur -21.3661 8.15529 -20.0735
ltibia 68.1902
lfoot -3.65063 3.16045
ltoes -10.7868
314
root 7.23347 16.3882 3.81887 6.16141 -1.5912 -1.12597
lowerback 0.361971 1.56898 3.25787
upperback -1.76794 2.17644 2.12347
thorax -1.97964 1.05265 0.310542
lowerneck -10.418 -0.411692 -1.55769
upperneck 20.1308 -0.00752528 -1.23132
head 7.93575 -0.234742 -0.146265
rclavicle -1.08586e-014 -2.70347e-014
rhumerus -32.286 -22.234 -75.9921
rradius 22.3114
rwrist 9.9995
rhand -20.1849 -35.3106
rfingers 7.12502
rthumb 6.16135 -65.201
lclavicle -1.08586e-014 -2.70347e-014
lhumerus -29.6817 9.69977 86.2568
lradius 21.9201
lwrist 5.43769
lhand -24.1342 -15.4392
lfingers 7.12502
lthumb 2.34776 14.5276
rfemur -25.2383 3.81885 26.3134
rtibia 37.6117
rfoot -15.8963 8.68026
rtoes 6.71483
lfemur -22.5833 8.41423 -19.9348
ltibia 68.0584
lfoot -4.65712 2.21896
ltoes -9.18233
